<?xml version="1.0" encoding="UTF-8"?>
<svg id="Layer_1" xmlns="http://www.w3.org/2000/svg" version="1.1" viewBox="0 0 727.38 727.38">
  <!-- Generator: Adobe Illustrator 29.1.0, SVG Export Plug-In . SVG Version: 2.1.0 Build 142)  -->
  <defs>
    <style>
      .st0 {
        fill: #1d1d1b;
      }

      .st1 {
        font-family: HelveticaNeue-Bold, 'Helvetica Neue';
        font-size: 62px;
        font-weight: 700;
      }

      .st2 {
        fill: #87bd25;
      }

      .st3 {
        fill: #36a9e1;
      }

      .st4 {
        fill: #0095db;
      }

      .st5 {
        fill: #9d9d9c;
        font-family: HelveticaNeue-Medium, 'Helvetica 65 Medium';
        font-size: 24px;
        font-weight: 500;
      }
    </style>
  </defs>
  <g>
    <path class="st2" d="M540.92,132.73c35.2,41.2,56.49,94.54,56.49,152.87,0,130.4-106.16,236.1-237.12,236.1s-237.12-105.71-237.12-236.1c0-58.33,21.29-111.68,56.49-152.87-48.33,46.85-78.37,112.32-78.37,184.79,0,142.43,115.96,257.89,259,257.89s259-115.46,259-257.89c0-72.47-30.03-137.94-78.37-184.79Z"/>
    <path class="st3" d="M204.75,443.53c-30.31-35.47-48.64-81.41-48.64-131.64,0-112.28,91.41-203.3,204.18-203.3s204.18,91.02,204.18,203.3c0,50.22-18.33,96.16-48.64,131.64,41.62-40.34,67.48-96.72,67.48-159.12,0-122.64-99.85-222.06-223.02-222.06s-223.02,99.42-223.02,222.06c0,62.4,25.86,118.78,67.48,159.12Z"/>
    <path class="st3" d="M475.91,253.72l-88.08,129.04,9.15,6.8c3,2.24,3.63,6.51,1.39,9.51l-1.78,2.39c-2.01,2.72-5.69,3.48-8.59,1.95,7.96,22.07-.48,46.49-23.8,90.88,0,0-9.97-1.08-24.19-5.1,0,0,8.95-2.66,15.67-27.65-13.43,24.48-25.61,24.56-25.61,24.56-7.68-2.61-16.04-6.01-24.45-10.4,0,0,5.83-2.12,10.65-10.26-6.54,5.55-18.24,6.01-18.24,6.01-4.93-2.92-9.77-6.21-14.48-9.89,0,0,17.03-2.69,34.19-15.87-17.34,10.34-42.44,8.73-42.44,8.73-4.7-4.47-9.15-9.43-13.12-14.93,0,0,10.99.56,25.3-10.8-18.64,8.36-29.55,4.42-29.55,4.42-2.69-4.42-5.13-9.15-7.2-14.22,0,0,17.82,2.86,44.05-9.01-41.73,5.98-48.5-4.59-48.5-4.59-1.08-4.19-1.93-8.58-2.49-13.17,0,0,73.29,8.24,111.62-12.92-2.29-2.32-2.61-6.09-.62-8.78l1.78-2.41c2.24-3,6.51-3.62,9.49-1.39l10.34,7.65,89.35-130.88-105.47-107.17-176.78,179.61h49.46v148.37c35.98,25.47,79.89,40.51,127.32,40.51s91.31-15.04,127.26-40.51v-148.37h49.49l-61.13-62.12ZM364.6,218.79h31.59v31.59h-31.59v-31.59ZM364.6,259.01h31.59v31.59h-31.59v-31.59ZM324.37,218.79h31.59v31.59h-31.59v-31.59ZM324.37,259.01h31.59v31.59h-31.59v-31.59Z"/>
  </g>
  <text class="st1" transform="translate(97.74 632.1)"><tspan class="st2" x="0" y="0">E&amp;A Grüne</tspan><tspan class="st0" x="322.64" y="0"> </tspan><tspan class="st4" x="339.88" y="0">GmbH</tspan></text>
  <text class="st5" transform="translate(99.81 658.15)"><tspan x="0" y="0">Wir sind ein Team von qualifizierten Fachleuten</tspan></text>
</svg>